<svg class="border shadow-md" viewBox="0 0 1351.68 760.32" style="width: 1351.68px; height: 760.32px;" xmlns="http://www.w3.org/2000/svg" preserveAspectRatio="none"><rect class="bg" id="bg" x="0" y="0" width="1351.68" height="760.32" fill="#ffffff"/><g transform="rotate(0 675.84 380.16)"><path id="-1" d="M -387.92 -54.48 S -276.00 -106.48&#10;            0.00 -54.48 182.92 -96.72&#10;            387.92 -54.48 571.88 -96.72&#10;            775.84 -54.48 791.76 -106.48&#10;            1163.76 -54.48 1331.68 -123.48&#10;            1551.68 -54.48 1735.64 -136.48&#10;            1939.60 -54.48 h 110 V 960.32 H -387.92 Z" fill="#6E0000"/><path id="0" d="M -387.92 30.00 S -389.00 -46.00&#10;            0.00 30.00 183.96 -38.00&#10;            387.92 30.00 454.84 -12.24&#10;            775.84 30.00 959.80 -12.24&#10;            1163.76 30.00 1347.72 -12.24&#10;            1551.68 30.00 1735.64 -12.24&#10;            1939.60 30.00 h 110 V 960.32 H -387.92 Z" fill="#630000"/><path id="1" d="M -387.92 114.48 S -203.96 62.48&#10;            0.00 114.48 183.96 46.48&#10;            387.92 114.48 571.88 72.24&#10;            775.84 114.48 959.80 72.24&#10;            1163.76 114.48 1347.72 72.24&#10;            1551.68 114.48 1651.60 49.48&#10;            1939.60 114.48 h 110 V 960.32 H -387.92 Z" fill="#580000"/><path id="2" d="M -387.92 198.96 S -203.96 141.96&#10;            0.00 198.96 183.96 156.72&#10;            387.92 198.96 571.88 116.96&#10;            775.84 198.96 959.80 120.96&#10;            1163.76 198.96 1347.72 142.96&#10;            1551.68 198.96 1735.64 156.72&#10;            1939.60 198.96 h 110 V 960.32 H -387.92 Z" fill="#4d0000"/><path id="3" d="M -387.92 283.44 S -203.96 202.44&#10;            0.00 283.44 138.92 218.44&#10;            387.92 283.44 571.88 241.20&#10;            775.84 283.44 959.80 241.20&#10;            1163.76 283.44 1301.68 221.44&#10;            1551.68 283.44 1549.60 225.44&#10;            1939.60 283.44 h 110 V 960.32 H -387.92 Z" fill="#420000"/><path id="4" d="M -387.92 367.92 S -203.96 325.68&#10;            0.00 367.92 183.92 291.92&#10;            387.92 367.92 571.88 325.68&#10;            775.84 367.92 959.80 325.68&#10;            1163.76 367.92 1347.72 323.92&#10;            1551.68 367.92 1735.64 283.92&#10;            1939.60 367.92 h 110 V 960.32 H -387.92 Z" fill="#370000"/><path id="5" d="M -387.92 452.40 S -227.00 399.40&#10;            0.00 452.40 183.96 370.40&#10;            387.92 452.40 571.88 378.40&#10;            775.84 452.40 959.80 377.40&#10;            1163.76 452.40 1279.68 410.16&#10;            1551.68 452.40 1679.60 391.40&#10;            1939.60 452.40 h 110 V 960.32 H -387.92 Z" fill="#2c0000"/><path id="6" d="M -387.92 536.88 S -203.96 494.64&#10;            0.00 536.88 115.92 462.88&#10;            387.92 536.88 435.84 494.64&#10;            775.84 536.88 959.80 460.88&#10;            1163.76 536.88 1290.68 494.64&#10;            1551.68 536.88 1735.64 462.88&#10;            1939.60 536.88 h 110 V 960.32 H -387.92 Z" fill="#210000"/><path id="7" d="M -387.92 621.36 S -203.96 579.12&#10;            0.00 621.36 183.96 560.36&#10;            387.92 621.36 571.88 549.36&#10;            775.84 621.36 877.76 579.12&#10;            1163.76 621.36 1167.68 579.12&#10;            1551.68 621.36 1725.60 567.36&#10;            1939.60 621.36 h 110 V 960.32 H -387.92 Z" fill="#160000"/><path id="8" d="M -387.92 705.84 S -228.00 652.84&#10;            0.00 705.84 183.96 637.84&#10;            387.92 705.84 480.84 663.60&#10;            775.84 705.84 895.76 628.84&#10;            1163.76 705.84 1347.72 663.60&#10;            1551.68 705.84 1711.60 663.60&#10;            1939.60 705.84 h 110 V 960.32 H -387.92 Z" fill="#0b0000"/></g></svg>